# xmcd CD database file
#
# Track frame offsets:
#	150
#	13621
#	29137
#	50673
#	64069
#	100629
#	143288
#	177146
#	218044
#	248460
#	294867
#	309710
#	319156
#	337720
#
# Disc length: 4723 seconds
#
# Revision: 0
# Processed by: cddbd v1.5.2PL0 Copyright (c) Steve Scherf et al.
# Submitted via: CDex 1.51
#
DISCID=b812710e
DTITLE=Varios - New Age, Edición Simple
DYEAR=2011
DGENRE=New Age
TTITLE0=Amazonas
TTITLE1=Oriental Eyes
TTITLE2=The White Door
TTITLE3=Flow
TTITLE4=Excrusion in Heaven
TTITLE5=Samdhi Notes
TTITLE6=Ecstatic Textures
TTITLE7=Samsara
TTITLE8=The Eternal Light
TTITLE9=Wide Open Mind
TTITLE10=Inner Life
TTITLE11=Lunar
TTITLE12=Inner Run
TTITLE13=Coming Back
EXTD=YEAR: 2011
EXTT0=
EXTT1=
EXTT2=
EXTT3=
EXTT4=
EXTT5=
EXTT6=
EXTT7=
EXTT8=
EXTT9=
EXTT10=
EXTT11=
EXTT12=
EXTT13=
PLAYORDER=
